<mxfile host="app.diagrams.net" modified="2021-07-26T13:19:00.576Z" agent="5.0 (X11)" etag="5C7ro2tKn_Rt3CJoYbUJ" version="14.9.2" type="github">
  <diagram id="O6ief5u6mfypZy1Qq0Gh" name="Page-1">
    <mxGraphModel dx="1402" dy="794" grid="1" gridSize="10" guides="1" tooltips="1" connect="1" arrows="1" fold="1" page="1" pageScale="1" pageWidth="827" pageHeight="1169" math="0" shadow="0">
      <root>
        <mxCell id="0" />
        <mxCell id="1" parent="0" />
        <mxCell id="vwDWFzu-jIrDnHgNc5qG-3" value="" style="group" vertex="1" connectable="0" parent="1">
          <mxGeometry x="354" y="120" width="120" height="80" as="geometry" />
        </mxCell>
        <mxCell id="vwDWFzu-jIrDnHgNc5qG-1" value="&lt;div&gt;getFormId&lt;/div&gt;" style="ellipse;whiteSpace=wrap;html=1;" vertex="1" parent="vwDWFzu-jIrDnHgNc5qG-3">
          <mxGeometry width="120" height="80" as="geometry" />
        </mxCell>
        <mxCell id="vwDWFzu-jIrDnHgNc5qG-7" value="" style="edgeStyle=orthogonalEdgeStyle;rounded=0;orthogonalLoop=1;jettySize=auto;html=1;" edge="1" parent="1" source="vwDWFzu-jIrDnHgNc5qG-4" target="vwDWFzu-jIrDnHgNc5qG-6">
          <mxGeometry relative="1" as="geometry" />
        </mxCell>
        <mxCell id="vwDWFzu-jIrDnHgNc5qG-4" value="buildForm" style="whiteSpace=wrap;html=1;" vertex="1" parent="1">
          <mxGeometry x="354" y="230" width="120" height="60" as="geometry" />
        </mxCell>
        <mxCell id="vwDWFzu-jIrDnHgNc5qG-5" value="" style="edgeStyle=orthogonalEdgeStyle;rounded=0;orthogonalLoop=1;jettySize=auto;html=1;" edge="1" parent="1" source="vwDWFzu-jIrDnHgNc5qG-1" target="vwDWFzu-jIrDnHgNc5qG-4">
          <mxGeometry relative="1" as="geometry" />
        </mxCell>
        <mxCell id="vwDWFzu-jIrDnHgNc5qG-9" value="" style="edgeStyle=orthogonalEdgeStyle;rounded=0;orthogonalLoop=1;jettySize=auto;html=1;" edge="1" parent="1" source="vwDWFzu-jIrDnHgNc5qG-6" target="vwDWFzu-jIrDnHgNc5qG-8">
          <mxGeometry relative="1" as="geometry" />
        </mxCell>
        <mxCell id="vwDWFzu-jIrDnHgNc5qG-11" value="" style="edgeStyle=orthogonalEdgeStyle;rounded=0;orthogonalLoop=1;jettySize=auto;html=1;" edge="1" parent="1" source="vwDWFzu-jIrDnHgNc5qG-6" target="vwDWFzu-jIrDnHgNc5qG-10">
          <mxGeometry relative="1" as="geometry" />
        </mxCell>
        <mxCell id="vwDWFzu-jIrDnHgNc5qG-6" value="&lt;div&gt;Cashe?&lt;/div&gt;" style="rhombus;whiteSpace=wrap;html=1;" vertex="1" parent="1">
          <mxGeometry x="374" y="320" width="80" height="80" as="geometry" />
        </mxCell>
        <mxCell id="vwDWFzu-jIrDnHgNc5qG-16" style="edgeStyle=orthogonalEdgeStyle;rounded=0;orthogonalLoop=1;jettySize=auto;html=1;exitX=0.5;exitY=1;exitDx=0;exitDy=0;entryX=1;entryY=0.5;entryDx=0;entryDy=0;" edge="1" parent="1" source="vwDWFzu-jIrDnHgNc5qG-8" target="vwDWFzu-jIrDnHgNc5qG-14">
          <mxGeometry relative="1" as="geometry" />
        </mxCell>
        <mxCell id="vwDWFzu-jIrDnHgNc5qG-8" value="find_build_function" style="whiteSpace=wrap;html=1;" vertex="1" parent="1">
          <mxGeometry x="490" y="330" width="120" height="60" as="geometry" />
        </mxCell>
        <mxCell id="vwDWFzu-jIrDnHgNc5qG-15" value="" style="edgeStyle=orthogonalEdgeStyle;rounded=0;orthogonalLoop=1;jettySize=auto;html=1;entryX=0;entryY=0.5;entryDx=0;entryDy=0;" edge="1" parent="1" source="vwDWFzu-jIrDnHgNc5qG-10" target="vwDWFzu-jIrDnHgNc5qG-14">
          <mxGeometry relative="1" as="geometry">
            <Array as="points">
              <mxPoint x="260" y="450" />
            </Array>
          </mxGeometry>
        </mxCell>
        <mxCell id="vwDWFzu-jIrDnHgNc5qG-10" value="&lt;div&gt;get_build_function&lt;/div&gt;" style="whiteSpace=wrap;html=1;" vertex="1" parent="1">
          <mxGeometry x="200" y="330" width="120" height="60" as="geometry" />
        </mxCell>
        <mxCell id="vwDWFzu-jIrDnHgNc5qG-12" value="&lt;div&gt;yes&lt;/div&gt;" style="text;html=1;align=center;verticalAlign=middle;resizable=0;points=[];autosize=1;strokeColor=none;" vertex="1" parent="1">
          <mxGeometry x="335" y="330" width="30" height="20" as="geometry" />
        </mxCell>
        <mxCell id="vwDWFzu-jIrDnHgNc5qG-13" value="&lt;div&gt;no&lt;/div&gt;" style="text;html=1;align=center;verticalAlign=middle;resizable=0;points=[];autosize=1;strokeColor=none;" vertex="1" parent="1">
          <mxGeometry x="455" y="330" width="30" height="20" as="geometry" />
        </mxCell>
        <mxCell id="vwDWFzu-jIrDnHgNc5qG-22" value="" style="edgeStyle=orthogonalEdgeStyle;rounded=0;orthogonalLoop=1;jettySize=auto;html=1;" edge="1" parent="1" source="vwDWFzu-jIrDnHgNc5qG-14" target="vwDWFzu-jIrDnHgNc5qG-21">
          <mxGeometry relative="1" as="geometry" />
        </mxCell>
        <mxCell id="vwDWFzu-jIrDnHgNc5qG-14" value="Procces build form" style="whiteSpace=wrap;html=1;" vertex="1" parent="1">
          <mxGeometry x="354" y="420" width="120" height="60" as="geometry" />
        </mxCell>
        <mxCell id="vwDWFzu-jIrDnHgNc5qG-24" value="" style="edgeStyle=orthogonalEdgeStyle;rounded=0;orthogonalLoop=1;jettySize=auto;html=1;" edge="1" parent="1" source="vwDWFzu-jIrDnHgNc5qG-21" target="vwDWFzu-jIrDnHgNc5qG-23">
          <mxGeometry relative="1" as="geometry" />
        </mxCell>
        <mxCell id="vwDWFzu-jIrDnHgNc5qG-21" value="&lt;div&gt;User input,&lt;/div&gt;press Submit" style="whiteSpace=wrap;html=1;" vertex="1" parent="1">
          <mxGeometry x="354" y="510" width="120" height="60" as="geometry" />
        </mxCell>
        <mxCell id="vwDWFzu-jIrDnHgNc5qG-30" value="" style="edgeStyle=orthogonalEdgeStyle;rounded=0;orthogonalLoop=1;jettySize=auto;html=1;" edge="1" parent="1" source="vwDWFzu-jIrDnHgNc5qG-23" target="vwDWFzu-jIrDnHgNc5qG-29">
          <mxGeometry relative="1" as="geometry" />
        </mxCell>
        <mxCell id="vwDWFzu-jIrDnHgNc5qG-32" value="" style="edgeStyle=orthogonalEdgeStyle;rounded=0;orthogonalLoop=1;jettySize=auto;html=1;" edge="1" parent="1" source="vwDWFzu-jIrDnHgNc5qG-23" target="vwDWFzu-jIrDnHgNc5qG-31">
          <mxGeometry relative="1" as="geometry" />
        </mxCell>
        <mxCell id="vwDWFzu-jIrDnHgNc5qG-23" value="&lt;div&gt;Validate&lt;/div&gt;&lt;div&gt;sucsess?&lt;/div&gt;" style="rhombus;whiteSpace=wrap;html=1;" vertex="1" parent="1">
          <mxGeometry x="374" y="600" width="80" height="80" as="geometry" />
        </mxCell>
        <mxCell id="vwDWFzu-jIrDnHgNc5qG-39" style="edgeStyle=orthogonalEdgeStyle;rounded=0;orthogonalLoop=1;jettySize=auto;html=1;exitX=0.5;exitY=1;exitDx=0;exitDy=0;entryX=0;entryY=0.5;entryDx=0;entryDy=0;" edge="1" parent="1" source="vwDWFzu-jIrDnHgNc5qG-29" target="vwDWFzu-jIrDnHgNc5qG-35">
          <mxGeometry relative="1" as="geometry" />
        </mxCell>
        <mxCell id="vwDWFzu-jIrDnHgNc5qG-29" value="Submit&lt;br&gt;and clear form" style="whiteSpace=wrap;html=1;" vertex="1" parent="1">
          <mxGeometry x="194" y="610" width="120" height="60" as="geometry" />
        </mxCell>
        <mxCell id="vwDWFzu-jIrDnHgNc5qG-38" style="edgeStyle=orthogonalEdgeStyle;rounded=0;orthogonalLoop=1;jettySize=auto;html=1;exitX=0.5;exitY=1;exitDx=0;exitDy=0;entryX=1;entryY=0.5;entryDx=0;entryDy=0;" edge="1" parent="1" source="vwDWFzu-jIrDnHgNc5qG-31" target="vwDWFzu-jIrDnHgNc5qG-35">
          <mxGeometry relative="1" as="geometry" />
        </mxCell>
        <mxCell id="vwDWFzu-jIrDnHgNc5qG-31" value="Show errors" style="whiteSpace=wrap;html=1;" vertex="1" parent="1">
          <mxGeometry x="514" y="610" width="120" height="60" as="geometry" />
        </mxCell>
        <mxCell id="vwDWFzu-jIrDnHgNc5qG-33" value="yes" style="text;html=1;align=center;verticalAlign=middle;resizable=0;points=[];autosize=1;strokeColor=none;" vertex="1" parent="1">
          <mxGeometry x="335" y="610" width="30" height="20" as="geometry" />
        </mxCell>
        <mxCell id="vwDWFzu-jIrDnHgNc5qG-34" value="no" style="text;html=1;align=center;verticalAlign=middle;resizable=0;points=[];autosize=1;strokeColor=none;" vertex="1" parent="1">
          <mxGeometry x="459" y="610" width="30" height="20" as="geometry" />
        </mxCell>
        <mxCell id="vwDWFzu-jIrDnHgNc5qG-35" value="return form" style="whiteSpace=wrap;html=1;" vertex="1" parent="1">
          <mxGeometry x="354" y="740" width="120" height="60" as="geometry" />
        </mxCell>
      </root>
    </mxGraphModel>
  </diagram>
</mxfile>
